<?xml version="1.0" encoding="UTF-8"?>
<!DOCTYPE svg PUBLIC "-//W3C//DTD SVG 1.1//EN" "http://www.w3.org/Graphics/SVG/1.1/DTD/svg11.dtd">
<svg xmlns="http://www.w3.org/2000/svg" version="1.1" width="666px" height="375px" style="shape-rendering:geometricPrecision; text-rendering:geometricPrecision; image-rendering:optimizeQuality; fill-rule:evenodd; clip-rule:evenodd" xmlns:xlink="http://www.w3.org/1999/xlink">
<g><path style="opacity:0.487" fill="#2b7f4c" d="M 234.5,71.5 C 187.165,71.3333 139.832,71.5 92.5,72C 86.9189,73.6162 81.2522,74.7829 75.5,75.5C 80.6229,73.6993 85.9562,72.1993 91.5,71C 139.335,70.1684 187.002,70.3351 234.5,71.5 Z"/></g>
<g><path style="opacity:1" fill="#2ac56f" d="M 234.5,71.5 C 235.833,116.833 235.833,162.167 234.5,207.5C 233.235,208.514 232.569,210.014 232.5,212C 232.099,215.167 231.766,218.334 231.5,221.5C 231.223,225.644 229.89,229.311 227.5,232.5C 225.127,234.579 223.794,237.246 223.5,240.5C 210.907,263.158 191.907,277.658 166.5,284C 116.533,285.472 66.533,285.972 16.5,285.5C 16.9877,258.79 17.321,232.123 17.5,205.5C 17.4479,202.678 16.7813,200.011 15.5,197.5C 16.2986,190.861 16.9653,184.194 17.5,177.5C 17.3895,165.484 17.7229,153.484 18.5,141.5C 21.9411,133.451 24.9411,125.118 27.5,116.5C 29.8218,115.198 31.1551,113.198 31.5,110.5C 32.7497,106.592 35.083,103.592 38.5,101.5C 43.5261,96.8053 48.5261,92.1387 53.5,87.5C 59.896,81.9652 67.2293,77.9652 75.5,75.5C 81.2522,74.7829 86.9189,73.6162 92.5,72C 139.832,71.5 187.165,71.3333 234.5,71.5 Z"/></g>
<g><path style="opacity:0.809" fill="#a9a9a9" d="M 294.5,90.5 C 278.167,90.5 261.833,90.5 245.5,90.5C 245.5,93.5 245.5,96.5 245.5,99.5C 251.5,99.5 257.5,99.5 263.5,99.5C 263.5,117.833 263.5,136.167 263.5,154.5C 262.503,136.674 262.17,118.674 262.5,100.5C 256.5,100.5 250.5,100.5 244.5,100.5C 244.5,96.8333 244.5,93.1667 244.5,89.5C 261.342,89.1702 278.008,89.5035 294.5,90.5 Z"/></g>
<g><path style="opacity:1" fill="#f3f3f3" d="M 294.5,90.5 C 294.872,93.6169 294.872,96.6169 294.5,99.5C 288.537,100.496 282.537,100.829 276.5,100.5C 276.5,118.5 276.5,136.5 276.5,154.5C 272.167,154.5 267.833,154.5 263.5,154.5C 263.5,136.167 263.5,117.833 263.5,99.5C 257.5,99.5 251.5,99.5 245.5,99.5C 245.5,96.5 245.5,93.5 245.5,90.5C 261.833,90.5 278.167,90.5 294.5,90.5 Z"/></g>
<g><path style="opacity:0.999" fill="#f1f1f1" d="M 304.5,89.5 C 308.5,89.5 312.5,89.5 316.5,89.5C 316.247,105.182 316.747,120.848 318,136.5C 320.497,141.728 324.663,144.061 330.5,143.5C 336.606,143.705 340.773,141.038 343,135.5C 343.5,120.17 343.667,104.837 343.5,89.5C 348.322,88.9347 352.822,89.6013 357,91.5C 357.074,101.875 357.241,112.208 357.5,122.5C 358.373,149.239 345.707,159.739 319.5,154C 311.537,151.706 306.704,146.539 305,138.5C 304.5,122.17 304.333,105.837 304.5,89.5 Z"/></g>
<g><path style="opacity:0.999" fill="#f5f5f5" d="M 386.5,113.5 C 386.631,112.624 386.298,111.957 385.5,111.5C 384.534,113.396 384.201,115.396 384.5,117.5C 384.5,129.833 384.5,142.167 384.5,154.5C 380.5,154.5 376.5,154.5 372.5,154.5C 372.5,132.833 372.5,111.167 372.5,89.5C 378.5,89.5 384.5,89.5 390.5,89.5C 395.309,105.429 400.809,121.095 407,136.5C 412.68,120.96 417.847,105.293 422.5,89.5C 428.167,89.5 433.833,89.5 439.5,89.5C 439.5,111.167 439.5,132.833 439.5,154.5C 435.5,154.5 431.5,154.5 427.5,154.5C 427.667,140.496 427.5,126.496 427,112.5C 421.423,125.556 416.423,138.89 412,152.5C 410.302,153.733 408.302,154.4 406,154.5C 403.698,154.4 401.698,153.733 400,152.5C 395.39,139.502 390.89,126.502 386.5,113.5 Z"/></g>
<g><path style="opacity:1" fill="#20bb64" d="M 469.5,88.5 C 477.482,87.7822 485.149,88.9489 492.5,92C 494.5,93.3333 496.167,95 497.5,97C 495.326,100.004 492.992,102.837 490.5,105.5C 482.713,98.8321 474.546,98.1655 466,103.5C 464.707,107.582 465.874,110.749 469.5,113C 479.266,113.809 488.099,116.976 496,122.5C 504.296,138.734 499.796,149.568 482.5,155C 469.564,157.19 458.898,153.357 450.5,143.5C 452.453,139.88 455.119,136.88 458.5,134.5C 464.417,141.782 472.084,144.615 481.5,143C 487.29,139.468 487.957,135.135 483.5,130C 475.409,127.643 467.409,124.976 459.5,122C 452.404,115.511 450.571,107.678 454,98.5C 457.841,93.0027 463.008,89.6694 469.5,88.5 Z"/></g>
<g><path style="opacity:1" fill="#1ebb64" d="M 541.5,90.5 C 554.833,90.5 568.167,90.5 581.5,90.5C 581.5,93.5 581.5,96.5 581.5,99.5C 572.167,99.5 562.833,99.5 553.5,99.5C 552.88,105.926 553.547,111.926 555.5,117.5C 563.43,116.618 571.43,116.618 579.5,117.5C 579.318,119.591 579.652,121.591 580.5,123.5C 580.006,125.026 579.339,126.359 578.5,127.5C 570.167,127.5 561.833,127.5 553.5,127.5C 553.5,136.167 553.5,144.833 553.5,153.5C 549.5,153.5 545.5,153.5 541.5,153.5C 540.167,132.5 540.167,111.5 541.5,90.5 Z"/></g>
<g><path style="opacity:0.969" fill="#17703f" d="M 53.5,87.5 C 48.5261,92.1387 43.5261,96.8053 38.5,101.5C 42.2166,95.4497 47.2166,90.7831 53.5,87.5 Z"/></g>
<g><path style="opacity:0.525" fill="#1e8a4e" d="M 541.5,90.5 C 554.99,89.5043 568.656,89.171 582.5,89.5C 582.5,93.1667 582.5,96.8333 582.5,100.5C 573.167,100.5 563.833,100.5 554.5,100.5C 554.214,106.259 554.548,111.925 555.5,117.5C 553.547,111.926 552.88,105.926 553.5,99.5C 562.833,99.5 572.167,99.5 581.5,99.5C 581.5,96.5 581.5,93.5 581.5,90.5C 568.167,90.5 554.833,90.5 541.5,90.5 Z"/></g>
<g><path style="opacity:1" fill="#f6fdf9" d="M 151.5,108.5 C 152.686,120.401 147.353,125.235 135.5,123C 133.481,122.55 131.648,121.717 130,120.5C 128.315,115.522 128.149,110.522 129.5,105.5C 137.916,98.0829 145.249,99.0829 151.5,108.5 Z"/></g>
<g><path style="opacity:1" fill="#f9fdfb" d="M 124.5,119.5 C 125.27,122.956 127.27,125.623 130.5,127.5C 131.23,129.045 132.563,129.878 134.5,130C 141.567,130.839 148.567,130.506 155.5,129C 156.571,128.148 157.571,127.315 158.5,126.5C 159.795,125.512 161.128,124.512 162.5,123.5C 164.017,123.489 165.184,122.823 166,121.5C 166.322,123.689 165.822,125.689 164.5,127.5C 162.359,130.472 159.692,132.972 156.5,135C 152.118,136.862 147.784,138.695 143.5,140.5C 139.846,140.942 136.179,141.276 132.5,141.5C 124.721,142.511 117.721,145.178 111.5,149.5C 107.5,151.5 104.5,154.5 102.5,158.5C 102.092,159.643 101.425,160.643 100.5,161.5C 98.2546,158.343 96.5879,155.009 95.5,151.5C 95.3337,144.159 95.5003,136.826 96,129.5C 97.8448,127.133 99.0114,124.467 99.5,121.5C 104.254,112.082 111.588,105.416 121.5,101.5C 121.172,106.875 121.505,112.208 122.5,117.5C 123.182,118.243 123.849,118.909 124.5,119.5 Z"/></g>
<g><path style="opacity:0.522" fill="#156736" d="M 31.5,110.5 C 31.1551,113.198 29.8218,115.198 27.5,116.5C 28.3403,114.147 29.6736,112.147 31.5,110.5 Z"/></g>
<g><path style="opacity:0.016" fill="#333333" d="M 386.5,113.5 C 385.833,114.833 385.167,116.167 384.5,117.5C 384.201,115.396 384.534,113.396 385.5,111.5C 386.298,111.957 386.631,112.624 386.5,113.5 Z"/></g>
<g><path style="opacity:1" fill="#8ce2b2" d="M 164.5,127.5 C 165.822,125.689 166.322,123.689 166,121.5C 165.184,122.823 164.017,123.489 162.5,123.5C 167.543,117.52 169.043,118.187 167,125.5C 166.292,126.381 165.458,127.047 164.5,127.5 Z"/></g>
<g><path style="opacity:0.657" fill="#209557" d="M 511.5,89.5 C 515.833,89.5 520.167,89.5 524.5,89.5C 524.5,111.167 524.5,132.833 524.5,154.5C 520.167,154.5 515.833,154.5 511.5,154.5C 511.5,132.833 511.5,111.167 511.5,89.5 Z"/></g>
<g><path style="opacity:1" fill="#1ec367" d="M 512.5,90.5 C 516.167,90.5 519.833,90.5 523.5,90.5C 523.5,111.5 523.5,132.5 523.5,153.5C 519.833,153.5 516.167,153.5 512.5,153.5C 512.5,132.5 512.5,111.5 512.5,90.5 Z"/></g>
<g><path style="opacity:1" fill="#1d804a" d="M 27.5,116.5 C 24.9411,125.118 21.9411,133.451 18.5,141.5C 19.7335,132.461 22.7335,124.128 27.5,116.5 Z"/></g>
<g><path style="opacity:1" fill="#f7fdf9" d="M 83.5,122.5 C 86.2427,124.239 88.2427,126.573 89.5,129.5C 91.2947,138.04 91.9614,146.707 91.5,155.5C 90.001,160.245 89.3343,165.245 89.5,170.5C 89.5136,174.239 90.1803,177.572 91.5,180.5C 92.1666,186.675 94.8333,191.842 99.5,196C 83.5149,200.101 70.0149,195.934 59,183.5C 55.7468,179.25 52.9135,174.75 50.5,170C 49.8524,168.56 49.5191,167.06 49.5,165.5C 48.7814,163.236 48.448,160.903 48.5,158.5C 65.4923,166.291 76.9923,161.291 83,143.5C 83.4986,139.848 83.6653,136.182 83.5,132.5C 82.761,128.985 82.761,125.652 83.5,122.5 Z"/></g>
<g><path style="opacity:1" fill="#51cf85" d="M 129.5,105.5 C 128.149,110.522 128.315,115.522 130,120.5C 131.648,121.717 133.481,122.55 135.5,123C 147.353,125.235 152.686,120.401 151.5,108.5C 152.809,112.351 152.809,116.351 151.5,120.5C 150.167,121.5 148.833,122.5 147.5,123.5C 142.5,124.167 137.5,124.833 132.5,125.5C 132.709,126.086 133.043,126.586 133.5,127C 139.825,127.5 146.158,127.666 152.5,127.5C 145.262,130.015 137.929,130.015 130.5,127.5C 127.27,125.623 125.27,122.956 124.5,119.5C 126.061,116.057 126.894,112.39 127,108.5C 127.377,107.058 128.21,106.058 129.5,105.5 Z"/></g>
<g><path style="opacity:1" fill="#6cd697" d="M 99.5,121.5 C 99.0114,124.467 97.8448,127.133 96,129.5C 95.5003,136.826 95.3337,144.159 95.5,151.5C 94.71,150.391 94.21,149.058 94,147.5C 93.0572,150.251 92.2239,152.917 91.5,155.5C 91.9614,146.707 91.2947,138.04 89.5,129.5C 91.4988,130.857 92.6655,130.19 93,127.5C 93.414,127.957 93.914,128.291 94.5,128.5C 95.9431,125.923 97.6098,123.59 99.5,121.5 Z"/></g>
<g><path style="opacity:1" fill="#c2efd4" d="M 158.5,126.5 C 157.571,127.315 156.571,128.148 155.5,129C 148.567,130.506 141.567,130.839 134.5,130C 132.563,129.878 131.23,129.045 130.5,127.5C 137.929,130.015 145.262,130.015 152.5,127.5C 154.435,126.85 156.435,126.517 158.5,126.5 Z"/></g>
<g><path style="opacity:1" fill="#9de6be" d="M 83.5,122.5 C 82.761,125.652 82.761,128.985 83.5,132.5C 82.8333,131.167 82.1667,129.833 81.5,128.5C 81.6199,126.266 81.2865,124.099 80.5,122C 81.6324,120.209 82.6324,120.375 83.5,122.5 Z"/></g>
<g><path style="opacity:0.397" fill="#1b673c" d="M 578.5,127.5 C 570.684,128.492 562.684,128.826 554.5,128.5C 554.5,137.167 554.5,145.833 554.5,154.5C 549.968,154.818 545.634,154.485 541.5,153.5C 545.5,153.5 549.5,153.5 553.5,153.5C 553.5,144.833 553.5,136.167 553.5,127.5C 561.833,127.5 570.167,127.5 578.5,127.5 Z"/></g>
<g><path style="opacity:1" fill="#f4fcf7" d="M 76.5,140.5 C 76.0474,152.113 70.0474,156.947 58.5,155C 56.9625,153.293 55.2959,151.793 53.5,150.5C 52.2167,145.843 52.3834,141.176 54,136.5C 58.8436,132.937 64.3436,131.77 70.5,133C 73.0939,135.086 75.0939,137.586 76.5,140.5 Z"/></g>
<g><path style="opacity:1" fill="#69d697" d="M 164.5,127.5 C 163.37,129.315 162.704,131.315 162.5,133.5C 160.654,133.222 159.32,133.889 158.5,135.5C 163.243,135.877 167.576,136.877 171.5,138.5C 164.076,138.302 156.743,138.968 149.5,140.5C 147.741,140.046 145.741,140.046 143.5,140.5C 147.784,138.695 152.118,136.862 156.5,135C 159.692,132.972 162.359,130.472 164.5,127.5 Z"/></g>
<g><path style="opacity:1" fill="#f9fdfa" d="M 171.5,138.5 C 175.797,139.789 180.13,141.289 184.5,143C 188.084,146.416 192.084,149.249 196.5,151.5C 197.386,152.325 197.719,153.325 197.5,154.5C 191.181,154.824 185.514,156.824 180.5,160.5C 179.37,161.622 178.703,162.956 178.5,164.5C 177.21,165.058 176.377,166.058 176,167.5C 174.635,174.137 175.802,180.137 179.5,185.5C 180.571,189.976 182.904,193.643 186.5,196.5C 187.96,198.463 189.627,200.296 191.5,202C 189.866,202.494 188.199,202.66 186.5,202.5C 185.833,202.5 185.167,202.5 184.5,202.5C 180.016,200.538 176.183,197.538 173,193.5C 170.052,187.735 166.552,182.402 162.5,177.5C 158.561,169.381 153.228,162.214 146.5,156C 143.904,154.864 141.237,154.031 138.5,153.5C 137.737,152.732 136.737,152.232 135.5,152C 138.865,148.343 142.532,145.176 146.5,142.5C 147.5,141.833 148.5,141.167 149.5,140.5C 156.743,138.968 164.076,138.302 171.5,138.5 Z"/></g>
<g><path style="opacity:1" fill="#20ba64" d="M 592.5,89.5 C 596.833,89.5 601.167,89.5 605.5,89.5C 605.333,103.837 605.5,118.171 606,132.5C 606.725,140.37 611.059,144.036 619,143.5C 625.291,143.861 629.625,141.194 632,135.5C 632.5,120.17 632.667,104.837 632.5,89.5C 636.833,89.5 641.167,89.5 645.5,89.5C 645.667,105.503 645.5,121.503 645,137.5C 641.175,150.106 632.509,156.106 619,155.5C 603.673,155.859 595.007,148.525 593,133.5C 592.5,118.837 592.333,104.17 592.5,89.5 Z"/></g>
<g><path style="opacity:1" fill="#a2e7c0" d="M 132.5,141.5 C 125.588,144.163 118.588,146.83 111.5,149.5C 117.721,145.178 124.721,142.511 132.5,141.5 Z"/></g>
<g><path style="opacity:1" fill="#b6edce" d="M 146.5,142.5 C 142.532,145.176 138.865,148.343 135.5,152C 136.737,152.232 137.737,152.732 138.5,153.5C 137.167,153.5 135.833,153.5 134.5,153.5C 136.536,147.801 140.536,144.135 146.5,142.5 Z"/></g>
<g><path style="opacity:1" fill="#84ddab" d="M 111.5,149.5 C 108.833,152.833 105.833,155.833 102.5,158.5C 104.5,154.5 107.5,151.5 111.5,149.5 Z"/></g>
<g><path style="opacity:0.977" fill="#1d7445" d="M 18.5,141.5 C 17.7229,153.484 17.3895,165.484 17.5,177.5C 14.6749,165.425 15.0082,153.425 18.5,141.5 Z"/></g>
<g><path style="opacity:1" fill="#4bcd81" d="M 81.5,128.5 C 82.1667,129.833 82.8333,131.167 83.5,132.5C 83.6653,136.182 83.4986,139.848 83,143.5C 76.9923,161.291 65.4923,166.291 48.5,158.5C 48.448,160.903 48.7814,163.236 49.5,165.5C 48.8826,165.389 48.3826,165.056 48,164.5C 47.433,161.832 46.933,159.166 46.5,156.5C 49.6092,156.345 52.6092,155.678 55.5,154.5C 54.3698,153.378 53.7031,152.044 53.5,150.5C 55.2959,151.793 56.9625,153.293 58.5,155C 70.0474,156.947 76.0474,152.113 76.5,140.5C 77.963,143.203 78.7963,146.203 79,149.5C 81.2217,142.704 82.055,135.704 81.5,128.5 Z"/></g>
<g><path style="opacity:1" fill="#f5fcf8" d="M 198.5,184.5 C 191.954,186.374 186.454,184.708 182,179.5C 181.502,176.183 181.335,172.85 181.5,169.5C 185.205,162.829 190.872,160.662 198.5,163C 207.693,170.269 207.693,177.436 198.5,184.5 Z"/></g>
<g><path style="opacity:1" fill="#6ed89c" d="M 91.5,155.5 C 91.5,163.833 91.5,172.167 91.5,180.5C 90.1803,177.572 89.5136,174.239 89.5,170.5C 89.3343,165.245 90.001,160.245 91.5,155.5 Z"/></g>
<g><path style="opacity:0.999" fill="#f4f4f4" d="M 264.5,178.5 C 271.241,178.171 277.908,178.671 284.5,180C 288.681,181.513 292.348,183.846 295.5,187C 292.992,190.338 290.325,193.505 287.5,196.5C 280.463,190.405 272.463,188.905 263.5,192C 260.392,196.688 261.059,200.688 265.5,204C 273.772,205.453 281.772,207.786 289.5,211C 297.512,218.274 299.679,227.107 296,237.5C 292.677,243.079 287.844,246.579 281.5,248C 267.079,251.237 255.079,247.404 245.5,236.5C 247.817,232.854 250.484,229.52 253.5,226.5C 260.518,235.45 269.518,238.283 280.5,235C 284.5,230.667 284.5,226.333 280.5,222C 272.891,219.514 265.224,217.181 257.5,215C 247.249,208.067 244.749,198.9 250,187.5C 254.042,183.07 258.875,180.07 264.5,178.5 Z"/></g>
<g><path style="opacity:0.999" fill="#f3f3f3" d="M 397.5,178.5 C 405.005,177.988 412.339,178.822 419.5,181C 425.029,183.695 429.029,187.862 431.5,193.5C 428.554,196.313 425.221,198.646 421.5,200.5C 419.172,197.339 416.505,194.505 413.5,192C 400.525,187.42 392.025,191.587 388,204.5C 387.333,210.5 387.333,216.5 388,222.5C 391.021,233.434 398.188,237.934 409.5,236C 411.949,235.275 414.283,234.275 416.5,233C 418.519,229.945 420.352,226.778 422,223.5C 425.056,225.279 428.223,226.946 431.5,228.5C 430.663,237.257 425.996,243.424 417.5,247C 397.834,252.908 383.667,246.741 375,228.5C 372.494,216.611 373.161,204.944 377,193.5C 381.749,185.575 388.583,180.575 397.5,178.5 Z"/></g>
<g><path style="opacity:0.999" fill="#f2f2f2" d="M 464.5,178.5 C 472.005,177.988 479.339,178.822 486.5,181C 492.029,183.695 496.029,187.862 498.5,193.5C 495.467,196.44 491.967,198.774 488,200.5C 483.424,191.875 476.258,188.709 466.5,191C 460.279,192.923 456.446,197.09 455,203.5C 454.144,211.232 454.477,218.898 456,226.5C 461.314,235.8 469.147,238.634 479.5,235C 484.144,232.359 487.311,228.525 489,223.5C 492.581,225.374 496.081,227.374 499.5,229.5C 495.134,242.689 485.968,249.022 472,248.5C 457.141,248.954 447.141,242.287 442,228.5C 438.538,217.393 438.872,206.393 443,195.5C 447.485,186.352 454.652,180.685 464.5,178.5 Z"/></g>
<g><path style="opacity:0.999" fill="#f4f4f4" d="M 531.5,178.5 C 557.394,176.229 570.394,188.062 570.5,214C 570.619,235.709 559.953,247.209 538.5,248.5C 522.594,248.462 512.427,240.795 508,225.5C 503.92,209.653 507.42,195.82 518.5,184C 522.741,181.651 527.075,179.818 531.5,178.5 Z M 533.5,190.5 C 549.613,189.162 557.28,196.662 556.5,213C 556.406,232.791 547.073,239.791 528.5,234C 524.686,231.519 522.519,228.019 522,223.5C 521.137,215.436 521.47,207.436 523,199.5C 525.489,195.168 528.989,192.168 533.5,190.5 Z"/></g>
<g><path style="opacity:1" fill="#69d597" d="M 178.5,164.5 C 176.969,168.79 176.636,173.124 177.5,177.5C 178.167,178.5 178.833,179.5 179.5,180.5C 180.167,176.687 180.834,173.021 181.5,169.5C 181.335,172.85 181.502,176.183 182,179.5C 186.454,184.708 191.954,186.374 198.5,184.5C 198.389,185.117 198.056,185.617 197.5,186C 194.5,186.667 191.5,186.667 188.5,186C 185.351,184.492 182.351,182.992 179.5,181.5C 179.5,182.833 179.5,184.167 179.5,185.5C 175.802,180.137 174.635,174.137 176,167.5C 176.377,166.058 177.21,165.058 178.5,164.5 Z"/></g>
<g><path style="opacity:0.999" fill="#f5f5f5" d="M 325.5,179.5 C 331.537,179.171 337.537,179.504 343.5,180.5C 351.77,202.644 359.437,224.978 366.5,247.5C 361.821,247.666 357.155,247.499 352.5,247C 350.74,242.555 349.073,238.055 347.5,233.5C 338.833,232.167 330.167,232.167 321.5,233.5C 319.637,237.755 317.97,242.088 316.5,246.5C 311.833,247.833 307.167,247.833 302.5,246.5C 310.379,224.196 318.045,201.863 325.5,179.5 Z M 342.5,218.5 C 340.085,219.814 337.252,220.481 334,220.5C 330.979,220.498 328.146,220.164 325.5,219.5C 328.428,211.216 331.261,202.883 334,194.5C 337.721,202.161 340.554,210.161 342.5,218.5 Z"/></g>
<g><path style="opacity:1" fill="#f7fdfa" d="M 176.5,205.5 C 177.014,211.822 177.347,218.155 177.5,224.5C 177.064,230.814 175.064,236.48 171.5,241.5C 170.817,241.137 170.15,240.804 169.5,240.5C 169.657,239.127 169.49,237.793 169,236.5C 165.51,234.009 162.343,231.175 159.5,228C 153.859,226.143 148.192,226.143 142.5,228C 140.907,228.949 139.574,230.115 138.5,231.5C 133.702,233.885 130.369,237.552 128.5,242.5C 128.204,244.403 127.537,246.07 126.5,247.5C 125.521,248.765 124.521,250.099 123.5,251.5C 122.508,247.217 122.174,242.884 122.5,238.5C 125.461,235.504 127.128,231.838 127.5,227.5C 131.828,223.006 136.328,218.673 141,214.5C 145.119,208.571 148.952,202.571 152.5,196.5C 153.486,192.03 153.819,187.363 153.5,182.5C 160.224,184.282 165.724,187.949 170,193.5C 171.537,198.041 173.704,202.041 176.5,205.5 Z"/></g>
<g><path style="opacity:1" fill="#5bd18d" d="M 162.5,177.5 C 166.552,182.402 170.052,187.735 173,193.5C 176.183,197.538 180.016,200.538 184.5,202.5C 181.449,202.546 178.782,201.546 176.5,199.5C 176.254,201.22 176.254,203.22 176.5,205.5C 173.704,202.041 171.537,198.041 170,193.5C 165.724,187.949 160.224,184.282 153.5,182.5C 153.819,187.363 153.486,192.03 152.5,196.5C 152.781,191.435 152.448,186.435 151.5,181.5C 154.446,180.345 157.446,180.179 160.5,181C 160.167,181.333 159.833,181.667 159.5,182C 160.579,182.956 161.745,183.789 163,184.5C 163.018,182.203 162.851,179.869 162.5,177.5 Z"/></g>
<g><path style="opacity:1" fill="#f7fdfa" d="M 128.5,209.5 C 129.552,209.351 130.552,209.517 131.5,210C 130.594,211.699 130.261,213.533 130.5,215.5C 129.807,218.941 128.807,222.275 127.5,225.5C 123.14,229.203 119.473,233.536 116.5,238.5C 110.784,240.681 105.117,243.014 99.5,245.5C 93.1318,245.83 86.7985,245.496 80.5,244.5C 81.5244,243.148 82.5244,241.815 83.5,240.5C 92.6451,228.988 91.3118,218.988 79.5,210.5C 77.9991,209.248 76.3325,208.248 74.5,207.5C 68.4187,204.142 61.752,202.309 54.5,202C 55.056,201.617 55.3893,201.117 55.5,200.5C 61.1142,197.787 67.1142,196.954 73.5,198C 77.5352,198.874 81.5352,199.874 85.5,201C 92.9368,205.112 100.603,208.779 108.5,212C 115.547,213.118 122.213,212.285 128.5,209.5 Z"/></g>
<g><path style="opacity:1" fill="#77dba2" d="M 186.5,196.5 C 189.849,198.834 193.182,201.168 196.5,203.5C 192.903,204.84 189.57,204.507 186.5,202.5C 188.199,202.66 189.866,202.494 191.5,202C 189.627,200.296 187.96,198.463 186.5,196.5 Z"/></g>
<g><path style="opacity:1" fill="#71d99e" d="M 55.5,200.5 C 55.3893,201.117 55.056,201.617 54.5,202C 61.752,202.309 68.4187,204.142 74.5,207.5C 67.3307,205.417 59.9974,204.417 52.5,204.5C 52.0882,202.027 53.0882,200.694 55.5,200.5 Z"/></g>
<g><path style="opacity:1" fill="#97e3b9" d="M 130.5,215.5 C 130.261,213.533 130.594,211.699 131.5,210C 130.552,209.517 129.552,209.351 128.5,209.5C 129.287,207.896 130.62,207.229 132.5,207.5C 132.889,210.553 132.223,213.22 130.5,215.5 Z"/></g>
<g><path style="opacity:1" fill="#b9edcf" d="M 74.5,213.5 C 75.5,214.167 76.5,214.833 77.5,215.5C 73.8183,215.335 70.1516,215.501 66.5,216C 64.1965,217.124 62.1965,218.624 60.5,220.5C 61.2423,218.574 62.2423,216.741 63.5,215C 67.0863,213.892 70.753,213.392 74.5,213.5 Z"/></g>
<g><path style="opacity:0.463" fill="#186c3e" d="M 234.5,207.5 C 234.344,212.471 233.344,217.138 231.5,221.5C 231.766,218.334 232.099,215.167 232.5,212C 232.569,210.014 233.235,208.514 234.5,207.5 Z"/></g>
<g><path style="opacity:1" fill="#f7fdf9" d="M 77.5,215.5 C 86.1752,224.096 85.1752,231.43 74.5,237.5C 62.4834,237.69 57.8167,232.023 60.5,220.5C 62.1965,218.624 64.1965,217.124 66.5,216C 70.1516,215.501 73.8183,215.335 77.5,215.5 Z"/></g>
<g><path style="opacity:1" fill="#b4edce" d="M 176.5,205.5 C 177.922,209.239 178.589,213.239 178.5,217.5C 178.497,220.025 178.163,222.359 177.5,224.5C 177.347,218.155 177.014,211.822 176.5,205.5 Z"/></g>
<g><path style="opacity:0.624" fill="#b1b1b1" d="M 342.5,218.5 C 343.404,219.209 343.737,220.209 343.5,221.5C 337.132,221.83 330.798,221.496 324.5,220.5C 324.624,219.893 324.957,219.56 325.5,219.5C 328.146,220.164 330.979,220.498 334,220.5C 337.252,220.481 340.085,219.814 342.5,218.5 Z"/></g>
<g><path style="opacity:1" fill="#4bcd82" d="M 79.5,210.5 C 91.3118,218.988 92.6451,228.988 83.5,240.5C 83.1667,240.5 82.8333,240.5 82.5,240.5C 82.67,239.178 82.3366,238.011 81.5,237C 83.6447,236.257 83.8114,235.424 82,234.5C 79.5627,235.8 77.0627,236.8 74.5,237.5C 85.1752,231.43 86.1752,224.096 77.5,215.5C 76.5,214.833 75.5,214.167 74.5,213.5C 76.2624,213.357 77.9291,213.691 79.5,214.5C 80.2916,213.3 80.2916,211.967 79.5,210.5 Z"/></g>
<g><path style="opacity:1" fill="#68d597" d="M 127.5,225.5 C 127.5,226.167 127.5,226.833 127.5,227.5C 127.128,231.838 125.461,235.504 122.5,238.5C 122.762,237.022 122.429,235.689 121.5,234.5C 119.814,235.857 118.148,237.19 116.5,238.5C 119.473,233.536 123.14,229.203 127.5,225.5 Z"/></g>
<g><path style="opacity:1" fill="#51ce86" d="M 169.5,240.5 C 168.21,239.942 167.377,238.942 167,237.5C 166.586,237.957 166.086,238.291 165.5,238.5C 165.104,242.263 164.104,245.597 162.5,248.5C 163.379,236.045 157.713,231.045 145.5,233.5C 145.611,232.883 145.944,232.383 146.5,232C 150.486,231.501 154.486,231.334 158.5,231.5C 158.5,230.5 158.5,229.5 158.5,228.5C 156.152,228.33 153.818,227.997 151.5,227.5C 146.802,228.193 142.468,229.526 138.5,231.5C 139.574,230.115 140.907,228.949 142.5,228C 148.192,226.143 153.859,226.143 159.5,228C 162.343,231.175 165.51,234.009 169,236.5C 169.49,237.793 169.657,239.127 169.5,240.5 Z"/></g>
<g><path style="opacity:1" fill="#f4fcf7" d="M 162.5,248.5 C 152.181,260.237 144.181,258.737 138.5,244C 138.747,238.979 141.081,235.479 145.5,233.5C 157.713,231.045 163.379,236.045 162.5,248.5 Z"/></g>
<g><path style="opacity:1" fill="#9de5bb" d="M 138.5,231.5 C 135.138,235.192 131.805,238.859 128.5,242.5C 130.369,237.552 133.702,233.885 138.5,231.5 Z"/></g>
<g><path style="opacity:0.725" fill="#1b7845" d="M 227.5,232.5 C 226.696,235.442 225.362,238.109 223.5,240.5C 223.794,237.246 225.127,234.579 227.5,232.5 Z"/></g>
<g><path style="opacity:1" fill="#9ce5bd" d="M 122.5,238.5 C 122.174,242.884 122.508,247.217 123.5,251.5C 124.521,250.099 125.521,248.765 126.5,247.5C 126.849,250.463 125.849,252.796 123.5,254.5C 122.808,253.975 122.308,253.308 122,252.5C 121.185,247.648 121.352,242.981 122.5,238.5 Z"/></g>
<g><path style="opacity:1" fill="#a6e7c2" d="M 82.5,240.5 C 82.8333,240.5 83.1667,240.5 83.5,240.5C 82.5244,241.815 81.5244,243.148 80.5,244.5C 86.7985,245.496 93.1318,245.83 99.5,245.5C 93.013,246.654 86.3464,246.821 79.5,246C 78.7625,243.497 79.7625,241.663 82.5,240.5 Z"/></g>
<g><path style="opacity:0.152" fill="#000000" d="M -0.5,251.5 C 0.833333,254.167 0.833333,256.833 -0.5,259.5C -0.5,256.833 -0.5,254.167 -0.5,251.5 Z"/></g>
</svg>
